<mxfile host="app.diagrams.net" agent="Mozilla/5.0 (Windows NT 10.0; Win64; x64) AppleWebKit/537.36 (KHTML, like Gecko) Chrome/139.0.0.0 Safari/537.36" version="28.1.1">
  <diagram name="Page-1" id="JkshwTaUSLwBg72dy7Y9">
    <mxGraphModel dx="4303" dy="1687" grid="1" gridSize="10" guides="1" tooltips="1" connect="1" arrows="1" fold="1" page="1" pageScale="1" pageWidth="850" pageHeight="1100" math="0" shadow="0">
      <root>
        <mxCell id="0" />
        <mxCell id="1" parent="0" />
        <mxCell id="crrq2W2IMhjRX_Z08AQQ-2" value="" style="ellipse;fillColor=strokeColor;html=1;" parent="1" vertex="1">
          <mxGeometry x="442.5" y="40" width="30" height="30" as="geometry" />
        </mxCell>
        <mxCell id="crrq2W2IMhjRX_Z08AQQ-3" value="Open System" style="rounded=1;whiteSpace=wrap;html=1;" parent="1" vertex="1">
          <mxGeometry x="397.5" y="150" width="120" height="60" as="geometry" />
        </mxCell>
        <mxCell id="crrq2W2IMhjRX_Z08AQQ-4" value="" style="endArrow=classic;html=1;rounded=0;entryX=0.5;entryY=0;entryDx=0;entryDy=0;exitX=0.5;exitY=1;exitDx=0;exitDy=0;" parent="1" source="crrq2W2IMhjRX_Z08AQQ-2" target="crrq2W2IMhjRX_Z08AQQ-3" edge="1">
          <mxGeometry width="50" height="50" relative="1" as="geometry">
            <mxPoint x="485" y="-120" as="sourcePoint" />
            <mxPoint x="535" y="-170" as="targetPoint" />
          </mxGeometry>
        </mxCell>
        <mxCell id="crrq2W2IMhjRX_Z08AQQ-6" value="" style="endArrow=classic;html=1;rounded=0;entryX=0.5;entryY=0;entryDx=0;entryDy=0;" parent="1" edge="1">
          <mxGeometry width="50" height="50" relative="1" as="geometry">
            <mxPoint x="457.63" y="210" as="sourcePoint" />
            <mxPoint x="457.3" y="260" as="targetPoint" />
          </mxGeometry>
        </mxCell>
        <mxCell id="crrq2W2IMhjRX_Z08AQQ-19" value="Has account?Â " style="rhombus;" parent="1" vertex="1">
          <mxGeometry x="367.5" y="260" width="180" height="149" as="geometry" />
        </mxCell>
        <mxCell id="crrq2W2IMhjRX_Z08AQQ-24" value="No" style="text;html=1;align=center;verticalAlign=middle;whiteSpace=wrap;rounded=0;" parent="1" vertex="1">
          <mxGeometry x="595" y="319.5" width="30" height="30" as="geometry" />
        </mxCell>
        <mxCell id="crrq2W2IMhjRX_Z08AQQ-25" value="" style="endArrow=classic;html=1;rounded=0;exitX=0.954;exitY=0.388;exitDx=0;exitDy=0;exitPerimeter=0;" parent="1" edge="1">
          <mxGeometry width="50" height="50" relative="1" as="geometry">
            <mxPoint x="623.6199999999999" y="340.6400000000001" as="sourcePoint" />
            <mxPoint x="565" y="509" as="targetPoint" />
            <Array as="points">
              <mxPoint x="685" y="339.5" />
              <mxPoint x="685" y="509" />
            </Array>
          </mxGeometry>
        </mxCell>
        <mxCell id="crrq2W2IMhjRX_Z08AQQ-26" value="Register" style="rounded=1;whiteSpace=wrap;html=1;" parent="1" vertex="1">
          <mxGeometry x="415" y="480" width="145" height="60" as="geometry" />
        </mxCell>
        <mxCell id="crrq2W2IMhjRX_Z08AQQ-28" value="" style="endArrow=none;html=1;rounded=0;entryX=0.09;entryY=0.515;entryDx=0;entryDy=0;entryPerimeter=0;" parent="1" target="crrq2W2IMhjRX_Z08AQQ-24" edge="1">
          <mxGeometry width="50" height="50" relative="1" as="geometry">
            <mxPoint x="547.5" y="335" as="sourcePoint" />
            <mxPoint x="597.5" y="285" as="targetPoint" />
          </mxGeometry>
        </mxCell>
        <mxCell id="crrq2W2IMhjRX_Z08AQQ-29" value="" style="endArrow=none;html=1;rounded=0;entryX=0.09;entryY=0.515;entryDx=0;entryDy=0;entryPerimeter=0;" parent="1" edge="1">
          <mxGeometry width="50" height="50" relative="1" as="geometry">
            <mxPoint x="317" y="334.24" as="sourcePoint" />
            <mxPoint x="367.5" y="334.24" as="targetPoint" />
          </mxGeometry>
        </mxCell>
        <mxCell id="crrq2W2IMhjRX_Z08AQQ-30" value="Yes" style="text;html=1;align=center;verticalAlign=middle;whiteSpace=wrap;rounded=0;" parent="1" vertex="1">
          <mxGeometry x="285" y="329.5" width="40" height="10" as="geometry" />
        </mxCell>
        <mxCell id="crrq2W2IMhjRX_Z08AQQ-32" value="" style="endArrow=classic;html=1;rounded=0;entryX=0.555;entryY=-0.033;entryDx=0;entryDy=0;entryPerimeter=0;" parent="1" edge="1" target="crrq2W2IMhjRX_Z08AQQ-33">
          <mxGeometry width="50" height="50" relative="1" as="geometry">
            <mxPoint x="295" y="334.24" as="sourcePoint" />
            <mxPoint x="245" y="410" as="targetPoint" />
            <Array as="points">
              <mxPoint x="245" y="334" />
            </Array>
          </mxGeometry>
        </mxCell>
        <mxCell id="crrq2W2IMhjRX_Z08AQQ-33" value="Login&amp;nbsp;" style="rounded=1;whiteSpace=wrap;html=1;" parent="1" vertex="1">
          <mxGeometry x="165" y="480" width="145" height="60" as="geometry" />
        </mxCell>
        <mxCell id="crrq2W2IMhjRX_Z08AQQ-38" value="" style="endArrow=classic;html=1;rounded=0;" parent="1" edge="1">
          <mxGeometry width="50" height="50" relative="1" as="geometry">
            <mxPoint x="237.07999999999996" y="540" as="sourcePoint" />
            <mxPoint x="237.46999999999994" y="600" as="targetPoint" />
          </mxGeometry>
        </mxCell>
        <mxCell id="69nh1GEz3pS2rfX0nS-g-4" value="" style="endArrow=classic;html=1;rounded=0;exitX=0;exitY=0.5;exitDx=0;exitDy=0;" edge="1" parent="1" source="crrq2W2IMhjRX_Z08AQQ-26" target="crrq2W2IMhjRX_Z08AQQ-33">
          <mxGeometry width="50" height="50" relative="1" as="geometry">
            <mxPoint x="402.5" y="509.99840897896" as="sourcePoint" />
            <mxPoint x="332.88999999999993" y="534.49" as="targetPoint" />
          </mxGeometry>
        </mxCell>
        <mxCell id="69nh1GEz3pS2rfX0nS-g-6" value="Choose action" style="rhombus;whiteSpace=wrap;html=1;" vertex="1" parent="1">
          <mxGeometry x="176.25" y="600" width="122.5" height="120" as="geometry" />
        </mxCell>
        <mxCell id="69nh1GEz3pS2rfX0nS-g-8" value="Cancel appointments" style="rounded=1;whiteSpace=wrap;html=1;" vertex="1" parent="1">
          <mxGeometry x="460" y="750" width="145" height="60" as="geometry" />
        </mxCell>
        <mxCell id="69nh1GEz3pS2rfX0nS-g-9" value="Book appointments" style="rounded=1;whiteSpace=wrap;html=1;" vertex="1" parent="1">
          <mxGeometry x="10" y="760" width="145" height="60" as="geometry" />
        </mxCell>
        <mxCell id="69nh1GEz3pS2rfX0nS-g-10" value="View appointments" style="rounded=1;whiteSpace=wrap;html=1;" vertex="1" parent="1">
          <mxGeometry x="190" y="780" width="145" height="60" as="geometry" />
        </mxCell>
        <mxCell id="69nh1GEz3pS2rfX0nS-g-11" value="" style="endArrow=classic;html=1;rounded=0;exitX=-0.01;exitY=0.502;exitDx=0;exitDy=0;exitPerimeter=0;" edge="1" parent="1" source="69nh1GEz3pS2rfX0nS-g-6" target="69nh1GEz3pS2rfX0nS-g-9">
          <mxGeometry width="50" height="50" relative="1" as="geometry">
            <mxPoint x="130" y="610.24" as="sourcePoint" />
            <mxPoint x="80" y="754" as="targetPoint" />
            <Array as="points">
              <mxPoint x="80" y="660" />
            </Array>
          </mxGeometry>
        </mxCell>
        <mxCell id="69nh1GEz3pS2rfX0nS-g-13" value="" style="endArrow=classic;html=1;rounded=0;entryX=0.5;entryY=0;entryDx=0;entryDy=0;" edge="1" parent="1" target="69nh1GEz3pS2rfX0nS-g-8">
          <mxGeometry width="50" height="50" relative="1" as="geometry">
            <mxPoint x="300" y="660" as="sourcePoint" />
            <mxPoint x="528" y="750" as="targetPoint" />
            <Array as="points">
              <mxPoint x="530" y="660" />
            </Array>
          </mxGeometry>
        </mxCell>
        <mxCell id="69nh1GEz3pS2rfX0nS-g-16" value="" style="endArrow=classic;html=1;rounded=0;" edge="1" parent="1">
          <mxGeometry width="50" height="50" relative="1" as="geometry">
            <mxPoint x="237.20999999999995" y="720" as="sourcePoint" />
            <mxPoint x="237.59999999999994" y="780" as="targetPoint" />
          </mxGeometry>
        </mxCell>
        <mxCell id="69nh1GEz3pS2rfX0nS-g-17" value="Select doctor &amp;amp; date&amp;nbsp;" style="rounded=1;whiteSpace=wrap;html=1;" vertex="1" parent="1">
          <mxGeometry x="-45" y="890" width="145" height="60" as="geometry" />
        </mxCell>
        <mxCell id="69nh1GEz3pS2rfX0nS-g-19" value="Create appointment&amp;nbsp;" style="rounded=1;whiteSpace=wrap;html=1;" vertex="1" parent="1">
          <mxGeometry x="-380" y="1170" width="145" height="60" as="geometry" />
        </mxCell>
        <mxCell id="69nh1GEz3pS2rfX0nS-g-21" value="Check slot available" style="rounded=1;whiteSpace=wrap;html=1;" vertex="1" parent="1">
          <mxGeometry x="-80" y="1010" width="145" height="60" as="geometry" />
        </mxCell>
        <mxCell id="69nh1GEz3pS2rfX0nS-g-22" value="" style="endArrow=classic;html=1;rounded=0;exitX=0.113;exitY=1.008;exitDx=0;exitDy=0;exitPerimeter=0;" edge="1" parent="1" source="69nh1GEz3pS2rfX0nS-g-9" target="69nh1GEz3pS2rfX0nS-g-17">
          <mxGeometry width="50" height="50" relative="1" as="geometry">
            <mxPoint y="880" as="sourcePoint" />
            <mxPoint x="50" y="830" as="targetPoint" />
          </mxGeometry>
        </mxCell>
        <mxCell id="69nh1GEz3pS2rfX0nS-g-23" value="" style="endArrow=classic;html=1;rounded=0;exitX=0.25;exitY=1;exitDx=0;exitDy=0;" edge="1" parent="1" source="69nh1GEz3pS2rfX0nS-g-17" target="69nh1GEz3pS2rfX0nS-g-21">
          <mxGeometry width="50" height="50" relative="1" as="geometry">
            <mxPoint x="-32.5" y="1000" as="sourcePoint" />
            <mxPoint x="17.5" y="950" as="targetPoint" />
          </mxGeometry>
        </mxCell>
        <mxCell id="69nh1GEz3pS2rfX0nS-g-25" value="" style="endArrow=classic;html=1;rounded=0;exitX=0.25;exitY=1;exitDx=0;exitDy=0;" edge="1" parent="1">
          <mxGeometry width="50" height="50" relative="1" as="geometry">
            <mxPoint x="-8" y="1070" as="sourcePoint" />
            <mxPoint x="-7" y="1130" as="targetPoint" />
          </mxGeometry>
        </mxCell>
        <mxCell id="69nh1GEz3pS2rfX0nS-g-26" value="Slot available?" style="rhombus;whiteSpace=wrap;html=1;" vertex="1" parent="1">
          <mxGeometry x="-68.75" y="1130" width="122.5" height="120" as="geometry" />
        </mxCell>
        <mxCell id="69nh1GEz3pS2rfX0nS-g-27" value="Show alternative slots" style="rounded=1;whiteSpace=wrap;html=1;" vertex="1" parent="1">
          <mxGeometry x="210" y="1160" width="145" height="60" as="geometry" />
        </mxCell>
        <mxCell id="69nh1GEz3pS2rfX0nS-g-29" value="" style="endArrow=classic;html=1;rounded=0;" edge="1" parent="1">
          <mxGeometry width="50" height="50" relative="1" as="geometry">
            <mxPoint x="-150" y="1190" as="sourcePoint" />
            <mxPoint x="-230" y="1190" as="targetPoint" />
          </mxGeometry>
        </mxCell>
        <mxCell id="69nh1GEz3pS2rfX0nS-g-30" value="" style="endArrow=classic;html=1;rounded=0;" edge="1" parent="1">
          <mxGeometry width="50" height="50" relative="1" as="geometry">
            <mxPoint x="100" y="1189.47" as="sourcePoint" />
            <mxPoint x="205" y="1189.47" as="targetPoint" />
          </mxGeometry>
        </mxCell>
        <mxCell id="69nh1GEz3pS2rfX0nS-g-31" value="" style="endArrow=none;html=1;rounded=0;" edge="1" parent="1" source="69nh1GEz3pS2rfX0nS-g-32">
          <mxGeometry width="50" height="50" relative="1" as="geometry">
            <mxPoint x="-120" y="1190" as="sourcePoint" />
            <mxPoint x="-70" y="1190" as="targetPoint" />
          </mxGeometry>
        </mxCell>
        <mxCell id="69nh1GEz3pS2rfX0nS-g-33" value="" style="endArrow=none;html=1;rounded=0;" edge="1" parent="1" target="69nh1GEz3pS2rfX0nS-g-32">
          <mxGeometry width="50" height="50" relative="1" as="geometry">
            <mxPoint x="-120" y="1190" as="sourcePoint" />
            <mxPoint x="-70" y="1190" as="targetPoint" />
          </mxGeometry>
        </mxCell>
        <mxCell id="69nh1GEz3pS2rfX0nS-g-32" value="Yes" style="text;html=1;align=center;verticalAlign=middle;whiteSpace=wrap;rounded=0;" vertex="1" parent="1">
          <mxGeometry x="-160" y="1175" width="60" height="30" as="geometry" />
        </mxCell>
        <mxCell id="69nh1GEz3pS2rfX0nS-g-35" value="" style="endArrow=none;html=1;rounded=0;" edge="1" parent="1">
          <mxGeometry width="50" height="50" relative="1" as="geometry">
            <mxPoint x="53.75" y="1189.71" as="sourcePoint" />
            <mxPoint x="83.75" y="1189.71" as="targetPoint" />
          </mxGeometry>
        </mxCell>
        <mxCell id="69nh1GEz3pS2rfX0nS-g-36" value="No" style="text;html=1;align=center;verticalAlign=middle;whiteSpace=wrap;rounded=0;" vertex="1" parent="1">
          <mxGeometry x="65" y="1175" width="60" height="30" as="geometry" />
        </mxCell>
        <mxCell id="69nh1GEz3pS2rfX0nS-g-37" value="Send confirmation" style="rounded=1;whiteSpace=wrap;html=1;" vertex="1" parent="1">
          <mxGeometry x="-380" y="1280" width="145" height="60" as="geometry" />
        </mxCell>
        <mxCell id="69nh1GEz3pS2rfX0nS-g-38" value="Send confirmation to patient&amp;nbsp;" style="rounded=1;whiteSpace=wrap;html=1;" vertex="1" parent="1">
          <mxGeometry x="-380" y="1400" width="145" height="60" as="geometry" />
        </mxCell>
        <mxCell id="69nh1GEz3pS2rfX0nS-g-39" value="Book appointments" style="rounded=1;whiteSpace=wrap;html=1;" vertex="1" parent="1">
          <mxGeometry x="-390" y="1490" width="145" height="60" as="geometry" />
        </mxCell>
        <mxCell id="69nh1GEz3pS2rfX0nS-g-40" value="" style="endArrow=classic;html=1;rounded=0;exitX=0.5;exitY=1;exitDx=0;exitDy=0;" edge="1" parent="1">
          <mxGeometry width="50" height="50" relative="1" as="geometry">
            <mxPoint x="-312.96" y="1230" as="sourcePoint" />
            <mxPoint x="-312.96" y="1280" as="targetPoint" />
          </mxGeometry>
        </mxCell>
        <mxCell id="69nh1GEz3pS2rfX0nS-g-41" value="" style="endArrow=classic;html=1;rounded=0;exitX=0.5;exitY=1;exitDx=0;exitDy=0;entryX=0.5;entryY=0;entryDx=0;entryDy=0;" edge="1" parent="1" target="69nh1GEz3pS2rfX0nS-g-38">
          <mxGeometry width="50" height="50" relative="1" as="geometry">
            <mxPoint x="-307.71" y="1340" as="sourcePoint" />
            <mxPoint x="-307.71" y="1390" as="targetPoint" />
          </mxGeometry>
        </mxCell>
        <mxCell id="69nh1GEz3pS2rfX0nS-g-42" value="" style="endArrow=classic;html=1;rounded=0;exitX=0;exitY=0.5;exitDx=0;exitDy=0;" edge="1" parent="1" source="69nh1GEz3pS2rfX0nS-g-39">
          <mxGeometry width="50" height="50" relative="1" as="geometry">
            <mxPoint x="-500" y="1490" as="sourcePoint" />
            <mxPoint x="170" y="660" as="targetPoint" />
            <Array as="points">
              <mxPoint x="-480" y="1520" />
              <mxPoint x="-320" y="660" />
            </Array>
          </mxGeometry>
        </mxCell>
        <mxCell id="69nh1GEz3pS2rfX0nS-g-43" value="" style="endArrow=classic;html=1;rounded=0;entryX=1;entryY=0.5;entryDx=0;entryDy=0;exitX=0.32;exitY=-0.017;exitDx=0;exitDy=0;exitPerimeter=0;" edge="1" parent="1" source="69nh1GEz3pS2rfX0nS-g-27" target="69nh1GEz3pS2rfX0nS-g-17">
          <mxGeometry width="50" height="50" relative="1" as="geometry">
            <mxPoint x="300" y="1160" as="sourcePoint" />
            <mxPoint x="350" y="1110" as="targetPoint" />
            <Array as="points">
              <mxPoint x="220" y="920" />
            </Array>
          </mxGeometry>
        </mxCell>
        <mxCell id="69nh1GEz3pS2rfX0nS-g-44" value="Fetch appointments from system" style="rounded=1;whiteSpace=wrap;html=1;" vertex="1" parent="1">
          <mxGeometry x="252.5" y="910" width="145" height="60" as="geometry" />
        </mxCell>
        <mxCell id="69nh1GEz3pS2rfX0nS-g-45" value="Display appointment list" style="rounded=1;whiteSpace=wrap;html=1;" vertex="1" parent="1">
          <mxGeometry x="310" y="1040" width="145" height="60" as="geometry" />
        </mxCell>
        <mxCell id="69nh1GEz3pS2rfX0nS-g-46" value="" style="endArrow=classic;html=1;rounded=0;exitX=0.5;exitY=1;exitDx=0;exitDy=0;entryX=0.208;entryY=-0.01;entryDx=0;entryDy=0;entryPerimeter=0;" edge="1" parent="1" source="69nh1GEz3pS2rfX0nS-g-10" target="69nh1GEz3pS2rfX0nS-g-44">
          <mxGeometry width="50" height="50" relative="1" as="geometry">
            <mxPoint x="330" y="890" as="sourcePoint" />
            <mxPoint x="380" y="840" as="targetPoint" />
          </mxGeometry>
        </mxCell>
        <mxCell id="69nh1GEz3pS2rfX0nS-g-47" value="" style="endArrow=classic;html=1;rounded=0;exitX=0.5;exitY=1;exitDx=0;exitDy=0;entryX=0.208;entryY=-0.01;entryDx=0;entryDy=0;entryPerimeter=0;" edge="1" parent="1">
          <mxGeometry width="50" height="50" relative="1" as="geometry">
            <mxPoint x="325" y="971" as="sourcePoint" />
            <mxPoint x="345" y="1040" as="targetPoint" />
          </mxGeometry>
        </mxCell>
        <mxCell id="69nh1GEz3pS2rfX0nS-g-48" value="" style="endArrow=classic;html=1;rounded=0;exitX=0.569;exitY=1.059;exitDx=0;exitDy=0;exitPerimeter=0;" edge="1" parent="1" source="69nh1GEz3pS2rfX0nS-g-45">
          <mxGeometry width="50" height="50" relative="1" as="geometry">
            <mxPoint x="405" y="1140" as="sourcePoint" />
            <mxPoint x="300" y="660" as="targetPoint" />
            <Array as="points">
              <mxPoint x="400" y="1140" />
              <mxPoint x="500" y="1140" />
              <mxPoint x="410" y="660" />
            </Array>
          </mxGeometry>
        </mxCell>
        <mxCell id="69nh1GEz3pS2rfX0nS-g-49" value="Select appointment to cancel" style="rounded=1;whiteSpace=wrap;html=1;" vertex="1" parent="1">
          <mxGeometry x="500" y="900" width="145" height="60" as="geometry" />
        </mxCell>
        <mxCell id="69nh1GEz3pS2rfX0nS-g-52" value="" style="endArrow=classic;html=1;rounded=0;exitX=0.5;exitY=1;exitDx=0;exitDy=0;entryX=0.25;entryY=0;entryDx=0;entryDy=0;" edge="1" parent="1" source="69nh1GEz3pS2rfX0nS-g-8" target="69nh1GEz3pS2rfX0nS-g-49">
          <mxGeometry width="50" height="50" relative="1" as="geometry">
            <mxPoint x="640" y="870" as="sourcePoint" />
            <mxPoint x="690" y="820" as="targetPoint" />
          </mxGeometry>
        </mxCell>
        <mxCell id="69nh1GEz3pS2rfX0nS-g-53" value="" style="endArrow=classic;html=1;rounded=0;exitX=0.5;exitY=1;exitDx=0;exitDy=0;entryX=0.5;entryY=0;entryDx=0;entryDy=0;" edge="1" parent="1" target="69nh1GEz3pS2rfX0nS-g-54">
          <mxGeometry width="50" height="50" relative="1" as="geometry">
            <mxPoint x="630" y="960" as="sourcePoint" />
            <mxPoint x="630" y="1050" as="targetPoint" />
          </mxGeometry>
        </mxCell>
        <mxCell id="69nh1GEz3pS2rfX0nS-g-54" value="Confirm cancellation?" style="rhombus;whiteSpace=wrap;html=1;" vertex="1" parent="1">
          <mxGeometry x="580" y="1050" width="110" height="110" as="geometry" />
        </mxCell>
        <mxCell id="69nh1GEz3pS2rfX0nS-g-57" value="" style="endArrow=classic;html=1;rounded=0;exitX=0;exitY=0.5;exitDx=0;exitDy=0;" edge="1" parent="1" source="69nh1GEz3pS2rfX0nS-g-54">
          <mxGeometry width="50" height="50" relative="1" as="geometry">
            <mxPoint x="565" y="1100" as="sourcePoint" />
            <mxPoint x="517.5" y="1260.34" as="targetPoint" />
            <Array as="points">
              <mxPoint x="520" y="1105" />
            </Array>
          </mxGeometry>
        </mxCell>
        <mxCell id="69nh1GEz3pS2rfX0nS-g-58" value="Yes" style="text;html=1;align=center;verticalAlign=middle;whiteSpace=wrap;rounded=0;" vertex="1" parent="1">
          <mxGeometry x="517.5" y="1080" width="60" height="30" as="geometry" />
        </mxCell>
        <mxCell id="69nh1GEz3pS2rfX0nS-g-59" value="" style="endArrow=classic;html=1;rounded=0;exitX=1;exitY=0.5;exitDx=0;exitDy=0;" edge="1" parent="1" source="69nh1GEz3pS2rfX0nS-g-54">
          <mxGeometry width="50" height="50" relative="1" as="geometry">
            <mxPoint x="692.495" y="1121.3400000000001" as="sourcePoint" />
            <mxPoint x="300" y="660" as="targetPoint" />
            <Array as="points">
              <mxPoint x="720" y="1105" />
              <mxPoint x="640" y="660" />
            </Array>
          </mxGeometry>
        </mxCell>
        <mxCell id="69nh1GEz3pS2rfX0nS-g-60" value="No" style="text;html=1;align=center;verticalAlign=middle;whiteSpace=wrap;rounded=0;" vertex="1" parent="1">
          <mxGeometry x="670" y="1080" width="60" height="30" as="geometry" />
        </mxCell>
        <mxCell id="69nh1GEz3pS2rfX0nS-g-63" value="Update calendar &amp;amp; notify doctor" style="rounded=1;whiteSpace=wrap;html=1;" vertex="1" parent="1">
          <mxGeometry x="442.5" y="1260" width="145" height="60" as="geometry" />
        </mxCell>
        <mxCell id="69nh1GEz3pS2rfX0nS-g-64" value="Show cancellation success" style="rounded=1;whiteSpace=wrap;html=1;" vertex="1" parent="1">
          <mxGeometry x="442.5" y="1380" width="145" height="60" as="geometry" />
        </mxCell>
        <mxCell id="69nh1GEz3pS2rfX0nS-g-65" value="" style="endArrow=classic;html=1;rounded=0;exitX=0.25;exitY=1;exitDx=0;exitDy=0;" edge="1" parent="1">
          <mxGeometry width="50" height="50" relative="1" as="geometry">
            <mxPoint x="517.5" y="1320" as="sourcePoint" />
            <mxPoint x="518.5" y="1380" as="targetPoint" />
          </mxGeometry>
        </mxCell>
        <mxCell id="69nh1GEz3pS2rfX0nS-g-66" value="" style="endArrow=classic;html=1;rounded=0;exitX=0.443;exitY=1.046;exitDx=0;exitDy=0;exitPerimeter=0;entryX=1;entryY=0.5;entryDx=0;entryDy=0;" edge="1" parent="1" source="69nh1GEz3pS2rfX0nS-g-64" target="69nh1GEz3pS2rfX0nS-g-6">
          <mxGeometry width="50" height="50" relative="1" as="geometry">
            <mxPoint x="560" y="1490" as="sourcePoint" />
            <mxPoint x="800" y="850" as="targetPoint" />
            <Array as="points">
              <mxPoint x="500" y="1490" />
              <mxPoint x="740" y="1400" />
              <mxPoint x="730" y="660" />
            </Array>
          </mxGeometry>
        </mxCell>
        <mxCell id="69nh1GEz3pS2rfX0nS-g-68" value="" style="endArrow=classic;html=1;rounded=0;" edge="1" parent="1">
          <mxGeometry width="50" height="50" relative="1" as="geometry">
            <mxPoint x="237.5" y="720" as="sourcePoint" />
            <mxPoint x="200" y="1560" as="targetPoint" />
            <Array as="points">
              <mxPoint x="150" y="830" />
              <mxPoint x="238" y="930" />
              <mxPoint x="310" y="1130" />
              <mxPoint x="400" y="1180" />
            </Array>
          </mxGeometry>
        </mxCell>
        <mxCell id="69nh1GEz3pS2rfX0nS-g-70" value="" style="ellipse;html=1;shape=endState;fillColor=#000000;strokeColor=#ff0000;" vertex="1" parent="1">
          <mxGeometry x="160" y="1680" width="30" height="30" as="geometry" />
        </mxCell>
        <mxCell id="69nh1GEz3pS2rfX0nS-g-71" value="Logout/Exit" style="rounded=1;whiteSpace=wrap;html=1;" vertex="1" parent="1">
          <mxGeometry x="120" y="1560" width="145" height="60" as="geometry" />
        </mxCell>
        <mxCell id="69nh1GEz3pS2rfX0nS-g-72" value="" style="endArrow=classic;html=1;rounded=0;exitX=0.5;exitY=1;exitDx=0;exitDy=0;entryX=0.5;entryY=0;entryDx=0;entryDy=0;" edge="1" parent="1">
          <mxGeometry width="50" height="50" relative="1" as="geometry">
            <mxPoint x="176.25" y="1620" as="sourcePoint" />
            <mxPoint x="176.95999999999998" y="1680" as="targetPoint" />
          </mxGeometry>
        </mxCell>
      </root>
    </mxGraphModel>
  </diagram>
</mxfile>
